<?xml version="1.0" encoding="UTF-8"?>
<svg enable-background="new 0 0 504 504" version="1.1" viewBox="0 0 504 504" xml:space="preserve" xmlns="http://www.w3.org/2000/svg">
		<path d="m479.78 476h-375c-40.317 0-73-32.683-73-73v-14c0-40.317 32.683-73 73-73h375v160z" fill="#FFEBB7"/>
		<rect x="47.781" y="332" width="40" height="128" fill="#5C546A"/>
		<path d="m441.78 292h-426v-112h426c12.15 0 22 9.85 22 22v68c0 12.15-9.85 22-22 22z" fill="#FFEBB7"/>
		<rect x="71.781" y="36" width="408" height="120" fill="#FFEBB7"/>
		<path d="m480 492h-368c-52.934 0-96-43.062-96-96s43.066-96 96-96h368c8.836 0 16 7.164 16 16s-7.164 16-16 16h-368c-35.289 0-64 28.711-64 64s28.711 64 64 64h368c8.836 0 16 7.164 16 16s-7.164 16-16 16z" fill="#00C37A"/>
			<path d="m432 300h-424c-4.422 0-8-3.578-8-8s3.578-8 8-8h424c13.234 0 24-10.766 24-24v-48c0-13.234-10.766-24-24-24h-424c-4.422 0-8-3.578-8-8s3.578-8 8-8h424c22.055 0 40 17.945 40 40v48c0 22.055-17.945 40-40 40z" fill="#009BCA"/>
		<path d="m479.78 76h-368c-4.418 0-8-3.582-8-8s3.582-8 8-8h368v16z" fill="#E6BE94"/>
		<path d="m479.78 108h-368c-4.418 0-8-3.582-8-8s3.582-8 8-8h368v16z" fill="#E6BE94"/>
		<path d="m479.78 140h-368c-4.418 0-8-3.582-8-8s3.582-8 8-8h368v16z" fill="#E6BE94"/>
		<path d="m15.781 204h416c4.418 0 8 3.582 8 8s-3.582 8-8 8h-416v-16z" fill="#E6BE94"/>
		<path d="m15.781 236h416c4.418 0 8 3.582 8 8s-3.582 8-8 8h-416v-16z" fill="#E6BE94"/>
		<path d="m15.781 268h416c4.418 0 8 3.582 8 8s-3.582 8-8 8h-416v-16z" fill="#E6BE94"/>
		<path d="m488 172h-384c-26.469 0-48-21.531-48-48v-64c0-26.469 21.531-48 48-48h384c8.836 0 16 7.164 16 16s-7.164 16-16 16h-384c-8.824 0-16 7.176-16 16v64c0 8.82 7.176 16 16 16h384c8.836 0 16 7.164 16 16s-7.164 16-16 16z" fill="#FF4F19"/>
		<path d="m111.78 444c-4.422 0-8 3.578-8 8s3.578 8 8 8h368v-16h-368z" fill="#E6BE94"/>
		<path d="m111.78 412c-4.422 0-8 3.578-8 8s3.578 8 8 8h368v-16h-368z" fill="#E6BE94"/>
		<path d="m111.78 380c-4.422 0-8 3.578-8 8s3.578 8 8 8h368v-16h-368z" fill="#E6BE94"/>
		<path d="m111.78 348c-4.422 0-8 3.578-8 8s3.578 8 8 8h368v-16h-368z" fill="#E6BE94"/>
</svg>
